<?xml version="1.0" encoding="utf-8"?>
<!-- Generator: Fusion 360, Shaper Origin Export Add-In, Version 1.8.0  -->
<svg xmlns="http://www.w3.org/2000/svg" xmlns:xlink="http://www.w3.org/1999/xlink" xmlns:shaper="http://www.shapertools.com/namespaces/shaper" shaper:fusionaddin="version:1.8.0" width="4.84cm" height="3.45cm" version="1.1" x="0cm" y="0cm" viewBox="0 0 4.84 3.45" enable-background="new 0 0 4.84 3.45" xml:space="preserve"><path d="M2.42,0.3386028 A0.25,0.25 0 0,1 2.17,0.5886028 L-2.17,0.5886028 A0.25,0.25 90 0,1 -2.42,0.3386028 L-2.42,-2.6113972 A0.25,0.25 180 0,1 -2.17,-2.8613972 L2.17,-2.8613972 A0.25,0.25 270 0,1 2.42,-2.6113972 L2.42,0.3386028z" transform="matrix(1,0,0,-1,2.42,0.5886028)" fill="rgb(0,0,0)" stroke-linecap="round" stroke-linejoin="round" /><path d="M-2.2217326,0.2408802 a0.15,0.15 0 1,1 0.3,0 a0.15,0.15 0 1,1 -0.3,0z" transform="matrix(1,0,0,-1,2.42,0.5886028)" fill="rgb(255,255,255)" stroke="rgb(0,0,0)" stroke-width="0.0010cm" stroke-linecap="round" stroke-linejoin="round" /><path d="M1.9282674,0.2408802 a0.15,0.15 0 1,1 0.3,0 a0.15,0.15 0 1,1 -0.3,0z" transform="matrix(1,0,0,-1,2.42,0.5886028)" fill="rgb(255,255,255)" stroke="rgb(0,0,0)" stroke-width="0.0010cm" stroke-linecap="round" stroke-linejoin="round" /><path d="M0.995,-0.3163972 a0.175,0.175 0 1,1 0.35,0 a0.175,0.175 0 1,1 -0.35,0z" transform="matrix(1,0,0,-1,2.42,0.5886028)" fill="rgb(255,255,255)" stroke="rgb(0,0,0)" stroke-width="0.0010cm" stroke-linecap="round" stroke-linejoin="round" /><path d="M1.9282674,-2.5438879 a0.15,0.15 0 1,1 0.3,0 a0.15,0.15 0 1,1 -0.3,0z" transform="matrix(1,0,0,-1,2.42,0.5886028)" fill="rgb(255,255,255)" stroke="rgb(0,0,0)" stroke-width="0.0010cm" stroke-linecap="round" stroke-linejoin="round" /><path d="M-1.4919538,-2.1886028 A0.15,0.15 270 0,0 -1.6419538,-2.0386028 L-1.6419538,-0.7386028 A0.15,0.15 180 0,0 -1.4919538,-0.5886028 L1.4680462,-0.5886028 A0.15,0.15 90 0,0 1.6180462,-0.7386028 L1.6180462,-2.0386028 A0.15,0.15 0 0,0 1.4680462,-2.1886028 L-1.4919538,-2.1886028z" transform="matrix(1,0,0,-1,2.42,0.5886028)" fill="rgb(255,255,255)" stroke="rgb(0,0,0)" stroke-width="0.0010cm" stroke-linecap="round" stroke-linejoin="round" /><path d="M-2.2217326,-2.5438879 a0.15,0.15 0 1,1 0.3,0 a0.15,0.15 0 1,1 -0.3,0z" transform="matrix(1,0,0,-1,2.42,0.5886028)" fill="rgb(255,255,255)" stroke="rgb(0,0,0)" stroke-width="0.0010cm" stroke-linecap="round" stroke-linejoin="round" /></svg>